P2 
64 64 
255 
125 138 136 137 132 131 129 126 128 136 148 150 156 143 143 138 137 130 135 134 137 143 146 149 146 148 152 152 154 157 157 157 154 146 149 153 151 161 151 148 146 145 152 155 143 139 141 139 139 142 138 146 157 143 143 144 138 135 143 140 137 141 132 133 
112 125 114 116 126 135 145 151 152 139 140 132 130 130 141 148 144 140 140 138 143 146 140 147 152 159 158 165 157 149 146 142 146 131 138 149 149 143 139 150 151 146 142 128 135 142 145 144 147 152 146 140 144 138 147 148 147 136 133 127 133 124 140 128 
99 110 116 127 128 124 133 134 139 141 134 133 121 126 128 136 137 152 146 138 137 141 146 155 156 139 138 150 141 153 172 158 149 140 144 145 148 147 132 134 142 144 144 130 140 138 161 138 150 161 160 145 147 132 132 131 128 125 123 126 123 123 122 119 
106 110 110 117 118 136 138 125 126 140 131 142 143 127 122 133 149 146 144 134 126 138 130 133 131 130 134 144 137 142 148 141 143 138 147 142 142 144 162 145 138 136 139 133 132 139 160 138 142 140 152 137 122 136 138 133 139 130 123 122 122 127 118 120 
99 105 108 114 105 99 113 134 127 130 144 130 130 140 129 128 133 124 128 119 128 134 136 138 135 149 142 143 139 138 150 149 129 139 136 143 136 138 143 151 145 150 149 149 128 131 154 146 142 140 150 155 122 131 129 123 128 125 126 116 118 118 114 128 
102 111 108 107 112 115 113 121 120 122 146 120 120 108 119 122 122 130 134 141 157 151 120 118 124 149 132 135 149 145 166 141 131 134 137 141 143 137 142 137 140 147 162 160 148 126 133 137 136 139 148 133 129 129 122 141 126 126 122 111 109 117 106 108 
93 95 94 98 108 113 123 118 141 122 130 111 113 121 117 116 118 124 133 141 128 132 126 123 128 126 143 140 147 126 133 118 124 143 148 119 139 142 145 139 141 145 140 133 131 124 137 135 139 131 142 133 136 134 120 115 122 137 126 118 118 117 111 105 
103 98 100 108 109 112 119 132 141 118 111 109 117 123 122 124 127 118 127 121 112 95 111 129 132 137 149 143 153 125 123 136 135 121 131 123 138 128 123 120 124 132 135 130 130 137 126 122 122 120 121 113 125 125 128 125 119 119 111 115 106 112 124 116 
102 103 118 129 113 117 127 145 122 99 105 107 107 114 117 148 142 120 122 126 120 98 101 145 146 117 136 125 137 145 136 130 135 132 132 124 135 135 138 126 128 130 132 137 125 127 115 108 107 100 102 101 102 112 129 120 115 118 116 109 108 100 90 93 
96 89 85 96 108 119 137 135 110 92 99 112 104 96 104 117 114 106 112 115 133 127 121 135 150 129 120 110 133 129 125 124 122 122 128 117 130 121 117 108 121 123 137 136 122 124 113 107 106 106 108 105 106 113 118 111 117 110 115 110 112 92 100 113 
91 84 88 96 120 125 128 100 109 120 127 123 101 88 86 97 102 101 120 113 117 106 119 126 134 141 122 126 142 170 162 139 125 137 126 119 121 129 137 129 127 141 143 130 123 127 144 126 118 122 144 121 120 112 126 109 112 106 103 106 102 109 115 95 
74 77 92 117 120 106 82 88 139 148 156 142 106 90 85 92 113 99 123 158 145 117 120 123 125 132 121 119 118 115 121 124 138 138 142 127 120 129 131 139 134 137 133 123 127 120 127 132 127 114 124 120 114 108 121 114 119 106 123 129 120 120 107 108 
82 93 90 85 89 80 81 96 131 140 145 132 123 88 85 92 103 102 130 154 137 115 122 115 111 120 113 110 109 105 121 139 129 141 123 129 134 133 126 143 128 107 108 113 131 124 125 131 129 116 114 123 125 116 129 124 116 114 114 119 126 107 105 101 
115 112 104 85 87 80 81 109 106 108 103 81 95 110 117 114 129 129 135 117 114 119 128 126 141 124 132 134 116 131 123 166 137 112 111 127 124 128 114 124 130 127 119 127 125 121 125 124 131 119 125 136 134 114 118 108 123 102 110 102 104 97 97 100 
87 88 93 80 80 78 82 95 80 91 103 91 88 108 160 135 111 114 122 110 107 108 101 95 102 102 127 141 135 122 115 113 139 117 121 137 140 134 113 133 141 138 133 138 123 131 119 118 132 123 123 122 147 142 124 103 116 101 130 105 90 85 81 104 
71 77 72 78 73 83 83 95 89 90 87 95 96 115 101 103 123 99 96 96 93 109 124 115 117 109 134 123 106 124 131 129 135 152 125 123 127 119 104 92 104 112 115 120 128 133 122 127 139 125 101 109 119 110 112 111 142 116 114 102 89 83 84 104 
61 65 66 67 79 67 80 86 82 88 102 106 83 92 94 108 163 144 135 131 112 114 118 123 111 109 125 142 131 124 135 115 98 82 85 79 95 106 97 114 112 97 83 94 116 145 129 123 134 126 115 121 110 143 132 110 110 122 98 105 96 95 94 94 
70 68 64 76 81 71 71 78 106 97 105 65 72 84 116 92 102 138 141 100 94 108 88 109 101 112 110 90 147 114 99 98 96 97 92 132 145 136 113 108 101 115 157 177 135 134 148 123 105 89 101 106 119 103 104 103 95 91 80 83 85 89 93 80 
70 71 63 63 69 88 93 91 113 118 103 78 95 109 111 102 107 111 123 90 118 118 113 125 133 144 139 85 98 89 104 116 94 96 98 141 158 149 111 91 99 97 143 206 138 140 156 93 89 79 79 88 92 96 97 101 95 81 71 75 95 105 96 90 
59 91 99 90 86 80 89 104 92 90 96 96 101 117 101 108 89 122 108 127 144 132 142 127 119 124 128 102 104 123 102 118 114 101 98 91 119 142 106 105 101 109 155 198 141 142 147 114 91 76 81 99 89 84 81 94 93 104 103 67 69 78 91 91 
60 67 77 81 88 83 89 110 102 84 80 101 88 78 99 117 121 112 106 116 133 214 235 151 130 107 109 108 116 120 130 140 116 119 126 124 106 92 92 98 117 146 171 180 147 140 136 137 107 80 75 100 128 132 121 103 72 112 141 131 78 151 110 110 
77 69 87 74 85 80 85 82 79 89 90 97 84 103 81 101 99 102 88 104 106 120 137 126 110 120 125 120 131 118 121 149 98 91 89 84 78 75 78 77 87 100 117 151 125 113 103 89 87 84 81 84 139 166 133 104 112 111 88 91 90 126 119 128 
60 73 113 105 57 69 66 55 59 74 154 83 104 93 103 105 112 102 112 113 121 105 113 139 139 113 140 115 90 105 188 148 94 81 78 82 76 100 100 109 96 95 94 126 112 84 99 107 97 114 104 86 98 88 121 138 143 98 141 114 106 104 150 158 
55 69 78 67 78 88 86 78 80 65 139 102 99 85 102 132 93 87 113 118 156 150 171 195 180 178 138 104 88 97 93 102 84 80 108 116 88 109 110 106 104 98 83 102 84 96 89 119 125 109 91 111 124 101 101 106 116 108 107 102 114 107 109 114 
79 79 67 82 72 76 80 77 83 106 139 128 94 84 152 137 138 131 129 175 165 146 128 143 137 77 84 89 81 80 82 78 85 76 101 104 83 108 101 105 130 123 97 95 97 103 103 98 112 102 104 91 81 84 93 125 100 119 105 87 79 81 101 104 
85 80 68 84 73 80 85 92 133 150 107 129 95 107 146 115 102 116 120 131 125 153 130 155 152 101 89 100 121 123 107 99 97 90 103 99 88 104 102 104 132 156 138 138 218 203 147 110 105 96 100 100 84 81 78 100 124 147 116 76 68 78 102 80 
126 132 125 118 83 88 81 61 73 109 115 105 102 113 103 90 69 160 164 156 156 142 150 141 134 142 108 91 97 98 101 91 88 80 104 92 88 102 104 106 144 135 143 130 142 140 106 129 99 93 98 133 130 100 109 98 107 120 102 89 63 94 86 90 
130 194 128 157 175 104 74 63 84 99 109 87 84 89 100 98 90 144 160 140 115 148 122 120 156 170 151 100 86 104 100 107 135 63 104 95 100 112 115 110 161 161 158 133 148 128 119 112 122 98 97 136 113 76 68 68 62 87 76 97 88 79 72 76 
65 122 101 136 220 127 105 120 134 149 120 128 90 101 116 123 96 131 137 120 112 120 98 92 101 127 137 147 119 103 104 128 115 68 102 101 112 103 81 73 109 125 159 168 130 147 165 153 120 89 92 96 63 54 60 64 61 105 72 96 89 67 65 78 
52 94 117 128 204 125 128 139 127 117 138 150 115 100 107 120 133 150 102 135 142 118 75 78 66 109 142 149 132 117 128 129 141 97 60 67 75 70 77 78 83 130 125 144 153 142 139 125 139 113 99 79 89 77 81 65 59 96 66 103 69 83 90 97 
59 79 92 128 190 120 129 128 128 136 151 175 128 72 75 78 169 155 115 143 138 90 74 70 69 92 136 143 110 133 147 132 121 73 76 73 127 149 145 131 128 137 123 121 109 107 109 114 125 113 87 73 78 115 111 82 54 56 61 94 58 95 77 87 
39 50 79 98 133 141 137 128 117 123 121 111 99 71 72 78 163 182 130 132 157 122 76 63 61 83 140 138 122 114 111 139 125 124 106 107 132 102 125 144 103 154 139 131 112 114 127 116 115 103 88 92 99 114 150 125 77 68 47 63 48 95 72 82 
58 61 82 59 68 123 97 97 97 108 79 83 108 79 65 56 87 125 122 144 156 113 77 69 75 91 146 133 123 113 139 132 131 103 96 89 99 117 142 156 161 219 183 166 150 150 166 139 100 88 71 70 87 105 86 143 110 107 90 85 53 75 105 92 
67 65 87 75 62 80 65 62 61 61 65 71 81 159 154 101 84 71 101 144 118 107 81 68 64 74 105 131 125 136 126 111 124 104 61 74 110 149 142 175 115 180 206 205 191 198 197 189 83 82 62 57 85 105 94 104 74 75 73 121 99 101 87 109 
122 92 87 53 60 80 79 82 65 58 70 89 140 85 103 118 98 66 48 79 94 94 103 73 70 74 107 112 113 127 96 93 90 108 104 73 71 69 114 163 138 116 160 204 200 166 121 116 81 65 77 63 81 131 147 166 113 79 116 119 121 112 106 76 
205 128 99 53 48 79 64 68 76 63 67 75 198 139 66 63 69 69 64 69 93 80 104 92 88 103 79 66 58 85 125 90 83 93 109 100 71 66 93 157 142 173 104 128 151 72 73 67 88 119 49 50 135 86 97 129 159 73 87 112 100 65 60 52 
166 133 108 57 72 75 75 65 78 66 64 68 108 124 109 65 51 51 68 90 87 92 76 87 63 81 91 53 76 85 105 130 93 87 75 88 102 140 118 106 88 118 104 144 158 151 129 154 159 85 64 46 130 123 98 81 129 155 111 85 64 56 54 49 
78 122 91 56 54 62 85 59 58 56 58 76 112 115 124 67 60 64 71 80 119 65 76 95 89 73 102 82 47 70 94 103 130 85 69 87 71 105 124 70 57 99 133 150 192 108 80 81 63 108 76 63 148 126 111 106 81 77 69 70 57 55 56 41 
61 99 110 71 76 65 95 54 67 69 70 84 114 129 104 138 45 59 63 74 80 81 77 82 85 85 102 100 77 46 82 92 105 124 89 98 89 66 103 91 52 54 59 123 147 122 100 93 117 69 106 84 93 144 105 115 152 132 76 60 50 46 46 38 
78 119 78 65 72 49 76 87 73 68 61 66 76 87 60 125 109 79 114 134 114 99 70 89 86 92 83 55 52 72 48 86 96 108 115 105 75 59 66 87 92 74 83 81 114 126 125 129 109 97 119 173 127 141 125 116 113 112 69 53 38 55 62 63 
87 107 63 58 53 46 69 70 57 57 49 71 69 83 61 76 87 94 105 96 87 66 82 84 95 91 75 73 75 81 51 58 92 104 108 98 78 56 73 95 114 129 135 103 95 101 102 102 98 128 164 135 136 131 105 116 101 59 65 50 77 121 78 105 
81 106 60 44 39 40 62 58 49 52 42 60 68 72 73 81 80 73 118 80 132 88 79 77 91 108 86 110 135 128 88 52 65 105 100 94 109 178 143 134 125 96 75 60 62 82 85 124 172 125 127 131 101 112 111 123 94 65 69 90 72 95 85 66 
98 86 91 50 44 55 62 40 55 67 76 75 53 77 103 68 51 55 153 146 118 127 62 87 78 101 145 124 116 106 98 90 46 86 98 104 127 228 157 111 87 75 88 89 73 52 63 60 116 157 136 122 134 94 120 126 85 67 57 55 61 69 85 91 
73 74 88 70 69 64 82 88 75 39 36 35 73 75 105 115 56 56 74 103 87 77 69 56 79 82 106 119 124 162 158 127 78 77 94 86 130 210 123 92 95 129 102 76 97 62 44 48 63 73 74 96 111 132 123 112 69 53 46 44 62 66 68 64 
69 61 85 99 50 43 55 77 69 57 57 49 53 61 84 64 61 54 67 79 72 70 67 73 103 79 82 58 65 93 108 95 102 98 136 88 84 81 79 80 77 81 135 75 79 85 66 41 47 86 80 77 110 108 77 84 54 35 75 66 69 78 74 55 
67 56 68 83 55 42 54 66 42 73 68 42 35 71 66 104 125 140 103 77 90 114 108 166 188 68 68 60 59 65 52 45 90 130 97 48 56 70 89 104 81 71 73 83 90 63 79 65 65 106 108 68 55 55 81 99 57 70 99 72 70 81 71 72 
93 45 59 68 54 44 45 63 41 43 57 79 59 62 80 80 93 100 75 50 78 72 71 63 59 45 58 105 87 55 60 74 68 77 118 73 74 80 74 71 70 73 66 82 82 64 54 74 52 33 57 79 41 89 160 140 72 74 86 86 86 120 99 92 
116 63 45 67 68 50 37 56 50 69 76 79 93 51 43 31 30 47 68 51 92 68 38 51 70 61 46 93 119 113 79 47 53 84 109 80 96 90 75 70 68 68 73 74 71 67 76 62 80 50 40 94 80 71 125 84 76 103 158 82 74 106 81 101 
72 79 51 80 74 43 38 53 79 86 51 35 32 35 29 29 30 30 93 52 85 84 53 47 74 59 46 47 94 62 74 93 114 123 118 79 91 106 85 82 83 78 75 75 94 89 63 89 65 58 81 133 112 65 88 75 85 115 157 161 173 119 68 121 
72 101 39 44 69 60 31 31 49 36 30 29 29 29 29 31 36 40 55 128 79 63 72 47 70 48 50 42 58 85 83 108 79 78 136 117 89 75 68 93 110 71 67 75 88 99 64 57 75 37 65 104 57 64 71 56 74 72 82 133 121 84 107 78 
52 91 49 75 94 77 38 29 31 42 29 31 29 33 54 43 43 53 60 57 65 66 62 67 61 49 54 49 69 58 72 103 132 110 80 66 66 61 57 67 95 80 74 78 66 72 68 54 42 55 36 56 45 32 44 38 90 58 42 55 83 60 57 102 
54 67 63 78 88 72 44 29 32 32 31 45 36 74 55 41 40 30 41 37 68 57 69 79 62 75 45 54 62 61 92 85 101 165 85 63 61 72 84 63 56 75 71 69 66 61 52 60 54 47 56 43 63 43 30 42 127 91 101 105 112 82 61 52 
51 63 50 40 48 51 57 31 29 31 37 65 58 66 57 29 29 29 29 42 72 57 95 73 71 50 56 53 50 47 43 62 81 158 170 59 46 53 46 48 43 65 73 64 49 43 45 49 56 58 53 43 59 35 39 31 51 101 108 75 108 105 110 65 
48 57 47 33 42 58 86 39 29 29 29 36 40 55 33 29 29 29 30 29 40 63 81 131 156 64 35 51 46 47 62 75 88 126 207 129 49 38 50 40 71 49 61 45 46 42 46 51 57 54 42 52 55 35 40 53 29 60 92 52 67 108 52 37 
41 51 51 43 41 78 94 57 35 29 29 29 31 32 31 32 34 37 36 50 70 77 91 137 174 119 54 74 69 83 99 126 127 101 137 177 69 74 56 60 59 52 51 63 47 53 52 53 48 49 54 48 52 38 34 31 41 31 29 34 52 51 29 50 
37 47 46 56 42 44 58 62 40 29 32 30 29 30 35 37 60 97 76 67 61 47 53 107 172 147 67 84 111 99 99 133 167 101 102 106 74 60 61 64 57 52 55 57 65 56 46 41 42 41 48 48 40 41 37 34 56 52 33 37 53 41 57 33 
33 44 51 50 47 48 60 79 57 32 30 34 51 71 30 59 171 140 106 34 47 62 86 130 150 149 75 84 105 88 156 133 150 161 85 100 88 73 51 50 57 54 54 74 74 61 63 36 38 39 41 41 47 52 38 70 94 75 70 80 63 39 84 134 
34 42 54 70 52 40 60 90 55 29 29 59 75 80 31 48 163 165 143 72 111 135 114 89 163 145 76 100 110 135 129 77 107 159 147 64 107 70 70 53 58 74 94 78 91 97 63 49 41 38 37 42 52 39 42 89 90 83 83 66 61 49 52 67 
40 39 54 67 53 49 66 86 66 33 29 49 53 74 69 40 152 149 142 118 85 77 106 126 139 147 128 53 77 116 107 92 90 140 179 115 85 104 47 58 83 73 93 46 203 69 51 49 40 44 59 160 125 59 66 89 73 76 96 65 66 55 62 60 
36 36 51 61 53 51 51 60 64 43 29 29 47 68 74 44 138 145 132 128 112 114 87 85 130 136 156 68 108 72 37 47 101 102 148 168 91 97 87 70 66 48 53 81 193 63 42 65 52 41 116 154 101 121 112 87 73 76 169 51 67 50 52 52 
43 51 49 47 61 34 33 53 116 55 32 29 31 47 66 53 123 153 129 112 71 87 120 149 147 142 115 138 45 93 43 38 54 81 107 144 163 86 90 156 45 80 121 130 138 140 81 51 52 63 57 60 95 84 100 74 47 51 34 39 34 65 45 35 
41 50 52 40 57 42 44 56 96 62 37 31 29 50 54 59 128 148 142 120 152 160 159 161 159 156 97 129 87 66 105 39 41 48 59 135 175 119 101 207 86 59 90 109 113 181 103 93 104 76 57 65 76 143 139 54 38 32 47 31 36 37 60 71 
51 49 54 44 58 73 38 39 54 75 49 31 29 31 38 64 120 140 142 138 195 181 158 160 156 166 80 100 150 61 100 48 35 31 57 118 119 115 113 180 127 111 61 98 106 105 75 104 56 60 57 74 110 134 50 35 29 30 34 38 58 59 52 65 
33 31 31 39 62 90 39 33 47 77 68 37 35 51 69 63 109 147 128 135 167 154 145 158 170 184 71 94 99 107 37 32 46 88 128 147 78 56 132 100 108 140 143 81 58 51 68 53 48 64 92 116 140 109 123 32 30 33 33 32 59 70 73 61 
